# Blender v2.92.0 OBJ File: 'frame.blend'
# www.blender.org
o Cube
v 1.400000 1.400000 -0.100000
v 1.400000 -1.400000 -0.100000
v 1.400000 1.400000 0.100000
v 1.400000 -1.400000 0.100000
v -1.400000 1.400000 -0.100000
v -1.400000 -1.400000 -0.100000
v -1.400000 1.400000 0.100000
v -1.400000 -1.400000 0.100000
v 1.400000 1.398557 -0.175380
v 1.400000 1.178557 -0.175380
v 1.400000 1.398557 -0.095380
v 1.400000 1.178557 -0.095380
v -1.400000 1.398557 -0.175380
v -1.400000 1.178557 -0.175380
v -1.400000 1.398557 -0.095380
v -1.400000 1.178557 -0.095380
v 1.400000 -1.179100 -0.175380
v 1.400000 -1.399100 -0.175380
v 1.400000 -1.179100 -0.095380
v 1.400000 -1.399100 -0.095380
v -1.400000 -1.179100 -0.175380
v -1.400000 -1.399100 -0.175380
v -1.400000 -1.179100 -0.095380
v -1.400000 -1.399100 -0.095380
v 1.397664 -1.400124 -0.175380
v 1.177664 -1.400124 -0.175380
v 1.397664 -1.400124 -0.095380
v 1.177664 -1.400124 -0.095380
v 1.397664 1.399876 -0.175380
v 1.177664 1.399876 -0.175380
v 1.397664 1.399876 -0.095380
v 1.177664 1.399876 -0.095380
v -1.178821 -1.400124 -0.175380
v -1.398821 -1.400124 -0.175380
v -1.178821 -1.400124 -0.095380
v -1.398821 -1.400124 -0.095380
v -1.178820 1.399876 -0.175380
v -1.398821 1.399876 -0.175380
v -1.178820 1.399876 -0.095380
v -1.398821 1.399876 -0.095380
vt 0.625000 0.500000
vt 0.875000 0.500000
vt 0.875000 0.750000
vt 0.625000 0.750000
vt 0.375000 0.750000
vt 0.625000 1.000000
vt 0.375000 1.000000
vt 0.375000 0.000000
vt 0.625000 0.000000
vt 0.625000 0.250000
vt 0.375000 0.250000
vt 0.125000 0.500000
vt 0.375000 0.500000
vt 0.125000 0.750000
vt 0.625000 0.500000
vt 0.875000 0.500000
vt 0.875000 0.750000
vt 0.625000 0.750000
vt 0.375000 0.750000
vt 0.625000 1.000000
vt 0.375000 1.000000
vt 0.375000 0.000000
vt 0.625000 0.000000
vt 0.625000 0.250000
vt 0.375000 0.250000
vt 0.125000 0.500000
vt 0.375000 0.500000
vt 0.125000 0.750000
vt 0.625000 0.500000
vt 0.875000 0.500000
vt 0.875000 0.750000
vt 0.625000 0.750000
vt 0.375000 0.750000
vt 0.625000 1.000000
vt 0.375000 1.000000
vt 0.375000 0.000000
vt 0.625000 0.000000
vt 0.625000 0.250000
vt 0.375000 0.250000
vt 0.125000 0.500000
vt 0.375000 0.500000
vt 0.125000 0.750000
vt 0.625000 0.500000
vt 0.875000 0.500000
vt 0.875000 0.750000
vt 0.625000 0.750000
vt 0.375000 0.750000
vt 0.625000 1.000000
vt 0.375000 1.000000
vt 0.375000 0.000000
vt 0.625000 0.000000
vt 0.625000 0.250000
vt 0.375000 0.250000
vt 0.125000 0.500000
vt 0.375000 0.500000
vt 0.125000 0.750000
vt 0.625000 0.500000
vt 0.875000 0.500000
vt 0.875000 0.750000
vt 0.625000 0.750000
vt 0.375000 0.750000
vt 0.625000 1.000000
vt 0.375000 1.000000
vt 0.375000 0.000000
vt 0.625000 0.000000
vt 0.625000 0.250000
vt 0.375000 0.250000
vt 0.125000 0.500000
vt 0.375000 0.500000
vt 0.125000 0.750000
vn 0.0000 1.0000 0.0000
vn 0.0000 0.0000 1.0000
vn -1.0000 0.0000 0.0000
vn 0.0000 -1.0000 0.0000
vn 1.0000 0.0000 0.0000
vn 0.0000 0.0000 -1.0000
s off
f 1/1/1 5/2/1 7/3/1 3/4/1
f 4/5/2 3/4/2 7/6/2 8/7/2
f 8/8/3 7/9/3 5/10/3 6/11/3
f 6/12/4 2/13/4 4/5/4 8/14/4
f 2/13/5 1/1/5 3/4/5 4/5/5
f 6/11/6 5/10/6 1/1/6 2/13/6
f 9/15/1 13/16/1 15/17/1 11/18/1
f 12/19/2 11/18/2 15/20/2 16/21/2
f 16/22/3 15/23/3 13/24/3 14/25/3
f 14/26/4 10/27/4 12/19/4 16/28/4
f 10/27/5 9/15/5 11/18/5 12/19/5
f 14/25/6 13/24/6 9/15/6 10/27/6
f 17/29/1 21/30/1 23/31/1 19/32/1
f 20/33/2 19/32/2 23/34/2 24/35/2
f 24/36/3 23/37/3 21/38/3 22/39/3
f 22/40/4 18/41/4 20/33/4 24/42/4
f 18/41/5 17/29/5 19/32/5 20/33/5
f 22/39/6 21/38/6 17/29/6 18/41/6
f 25/43/5 29/44/5 31/45/5 27/46/5
f 28/47/2 27/46/2 31/48/2 32/49/2
f 32/50/1 31/51/1 29/52/1 30/53/1
f 30/54/3 26/55/3 28/47/3 32/56/3
f 26/55/4 25/43/4 27/46/4 28/47/4
f 30/53/6 29/52/6 25/43/6 26/55/6
f 33/57/5 37/58/5 39/59/5 35/60/5
f 36/61/2 35/60/2 39/62/2 40/63/2
f 40/64/1 39/65/1 37/66/1 38/67/1
f 38/68/3 34/69/3 36/61/3 40/70/3
f 34/69/4 33/57/4 35/60/4 36/61/4
f 38/67/6 37/66/6 33/57/6 34/69/6
