# Blender v2.92.0 OBJ File: 'transition.blend'
# www.blender.org
o corner.001_Cube.003
v 0.300000 5.687358 -15.175111
v 0.300000 0.842586 -3.478796
v 0.300000 6.463417 -14.853657
v 0.300000 1.618645 -3.157342
v -0.300000 5.687358 -15.175111
v -0.300000 0.842586 -3.478796
v -0.300000 6.463417 -14.853657
v -0.300000 1.618645 -3.157342
v 0.300000 10.813974 0.461242
v 0.300000 6.873974 0.461242
v 0.300000 10.813972 1.581243
v 0.300000 6.873974 1.581243
v -0.300000 10.813974 0.461242
v -0.300000 6.873974 0.461242
v -0.300000 10.813972 1.581243
v -0.300000 6.873974 1.581243
v 0.300000 7.000000 -31.632790
v 0.300000 -7.000000 -31.632790
v 0.300000 7.000000 -26.232792
v 0.300000 -7.000000 -26.232788
v -0.300000 7.000000 -31.632790
v -0.300000 -7.000000 -31.632790
v -0.300000 7.000000 -26.232792
v -0.300000 -7.000000 -26.232788
v 0.300000 6.987193 -26.359776
v 0.300000 6.327193 -26.359776
v 0.300000 6.987193 -3.819775
v 0.300000 6.327192 -3.819774
v -0.300000 6.987193 -26.359776
v -0.300000 6.327193 -26.359776
v -0.300000 6.987193 -3.819775
v -0.300000 6.327192 -3.819774
v 0.300000 5.992740 -3.441528
v 0.300000 2.956563 -6.789965
v 0.300000 6.333509 -3.750519
v 0.300000 3.297333 -7.098956
v -0.300000 5.992740 -3.441528
v -0.300000 2.956563 -6.789965
v -0.300000 6.333509 -3.750519
v -0.300000 3.297333 -7.098956
v 0.300000 6.463417 -14.799272
v 0.300000 1.618645 -26.495586
v 0.300000 5.687358 -14.477817
v 0.300000 0.842587 -26.174129
v -0.300000 6.463417 -14.799272
v -0.300000 1.618645 -26.495586
v -0.300000 5.687358 -14.477817
v -0.300000 0.842587 -26.174129
v 0.300000 7.342896 -31.680077
v 0.300000 6.507497 -31.592270
v 0.300000 10.815331 1.357944
v 0.300000 9.979933 1.445749
v -0.300000 7.342896 -31.680077
v -0.300000 6.507497 -31.592270
v -0.300000 10.815331 1.357944
v -0.300000 9.979933 1.445749
v 0.300000 10.108875 -5.942743
v 0.300000 5.264102 -17.639059
v 0.300000 9.332815 -5.621289
v 0.300000 4.488044 -17.317604
v -0.300000 10.108875 -5.942743
v -0.300000 5.264102 -17.639059
v -0.300000 9.332815 -5.621289
v -0.300000 4.488044 -17.317604
v 0.300000 7.000000 -3.817292
v 0.300000 -7.000000 -3.817292
v 0.300000 7.000000 1.582709
v 0.300000 -7.000000 1.582708
v -0.300000 7.000000 -3.817292
v -0.300000 -7.000000 -3.817292
v -0.300000 7.000000 1.582709
v -0.300000 -7.000000 1.582708
v 0.300000 6.458062 -26.200657
v 0.300000 3.542739 -21.894741
v 0.300000 6.077155 -26.458549
v 0.300000 3.161832 -22.152634
v -0.300000 6.458062 -26.200657
v -0.300000 3.542739 -21.894741
v -0.300000 6.077155 -26.458549
v -0.300000 3.161832 -22.152634
v 0.300000 9.490758 0.767323
v 0.300000 6.709834 -2.299609
v 0.300000 9.831528 0.458331
v 0.300000 7.050604 -2.608601
v -0.300000 9.490758 0.767323
v -0.300000 6.709834 -2.299609
v -0.300000 9.831528 0.458331
v -0.300000 7.050604 -2.608601
vt 0.625000 0.500000
vt 0.875000 0.500000
vt 0.875000 0.750000
vt 0.625000 0.750000
vt 0.375000 0.750000
vt 0.625000 1.000000
vt 0.375000 1.000000
vt 0.375000 0.000000
vt 0.625000 0.000000
vt 0.625000 0.250000
vt 0.375000 0.250000
vt 0.125000 0.500000
vt 0.375000 0.500000
vt 0.125000 0.750000
vt 0.625000 0.500000
vt 0.875000 0.500000
vt 0.875000 0.750000
vt 0.625000 0.750000
vt 0.375000 0.750000
vt 0.625000 1.000000
vt 0.375000 1.000000
vt 0.375000 0.000000
vt 0.625000 0.000000
vt 0.625000 0.250000
vt 0.375000 0.250000
vt 0.125000 0.500000
vt 0.375000 0.500000
vt 0.125000 0.750000
vt 0.625000 0.500000
vt 0.875000 0.500000
vt 0.875000 0.750000
vt 0.625000 0.750000
vt 0.375000 0.750000
vt 0.625000 1.000000
vt 0.375000 1.000000
vt 0.375000 0.000000
vt 0.625000 0.000000
vt 0.625000 0.250000
vt 0.375000 0.250000
vt 0.125000 0.500000
vt 0.375000 0.500000
vt 0.125000 0.750000
vt 0.625000 0.500000
vt 0.875000 0.500000
vt 0.875000 0.750000
vt 0.625000 0.750000
vt 0.375000 0.750000
vt 0.625000 1.000000
vt 0.375000 1.000000
vt 0.375000 0.000000
vt 0.625000 0.000000
vt 0.625000 0.250000
vt 0.375000 0.250000
vt 0.125000 0.500000
vt 0.375000 0.500000
vt 0.125000 0.750000
vt 0.625000 0.500000
vt 0.875000 0.500000
vt 0.875000 0.750000
vt 0.625000 0.750000
vt 0.375000 0.750000
vt 0.625000 1.000000
vt 0.375000 1.000000
vt 0.375000 0.000000
vt 0.625000 0.000000
vt 0.625000 0.250000
vt 0.375000 0.250000
vt 0.125000 0.500000
vt 0.375000 0.500000
vt 0.125000 0.750000
vt 0.625000 0.500000
vt 0.875000 0.500000
vt 0.875000 0.750000
vt 0.625000 0.750000
vt 0.375000 0.750000
vt 0.625000 1.000000
vt 0.375000 1.000000
vt 0.375000 0.000000
vt 0.625000 0.000000
vt 0.625000 0.250000
vt 0.375000 0.250000
vt 0.125000 0.500000
vt 0.375000 0.500000
vt 0.125000 0.750000
vt 0.625000 0.500000
vt 0.875000 0.500000
vt 0.875000 0.750000
vt 0.625000 0.750000
vt 0.375000 0.750000
vt 0.625000 1.000000
vt 0.375000 1.000000
vt 0.375000 0.000000
vt 0.625000 0.000000
vt 0.625000 0.250000
vt 0.375000 0.250000
vt 0.125000 0.500000
vt 0.375000 0.500000
vt 0.125000 0.750000
vt 0.625000 0.500000
vt 0.875000 0.500000
vt 0.875000 0.750000
vt 0.625000 0.750000
vt 0.375000 0.750000
vt 0.625000 1.000000
vt 0.375000 1.000000
vt 0.375000 0.000000
vt 0.625000 0.000000
vt 0.625000 0.250000
vt 0.375000 0.250000
vt 0.125000 0.500000
vt 0.375000 0.500000
vt 0.125000 0.750000
vt 0.625000 0.500000
vt 0.875000 0.500000
vt 0.875000 0.750000
vt 0.625000 0.750000
vt 0.375000 0.750000
vt 0.625000 1.000000
vt 0.375000 1.000000
vt 0.375000 0.000000
vt 0.625000 0.000000
vt 0.625000 0.250000
vt 0.375000 0.250000
vt 0.125000 0.500000
vt 0.375000 0.500000
vt 0.125000 0.750000
vt 0.625000 0.500000
vt 0.875000 0.500000
vt 0.875000 0.750000
vt 0.625000 0.750000
vt 0.375000 0.750000
vt 0.625000 1.000000
vt 0.375000 1.000000
vt 0.375000 0.000000
vt 0.625000 0.000000
vt 0.625000 0.250000
vt 0.375000 0.250000
vt 0.125000 0.500000
vt 0.375000 0.500000
vt 0.125000 0.750000
vt 0.625000 0.500000
vt 0.875000 0.500000
vt 0.875000 0.750000
vt 0.625000 0.750000
vt 0.375000 0.750000
vt 0.625000 1.000000
vt 0.375000 1.000000
vt 0.375000 0.000000
vt 0.625000 0.000000
vt 0.625000 0.250000
vt 0.375000 0.250000
vt 0.125000 0.500000
vt 0.375000 0.500000
vt 0.125000 0.750000
vn 0.0000 0.3827 -0.9239
vn 0.0000 0.9239 0.3827
vn -1.0000 0.0000 0.0000
vn 0.0000 -0.3827 0.9239
vn 1.0000 0.0000 0.0000
vn 0.0000 -0.9239 -0.3827
vn 0.0000 1.0000 0.0000
vn 0.0000 0.0000 1.0000
vn 0.0000 -1.0000 -0.0000
vn 0.0000 0.0000 -1.0000
vn 0.0000 -0.6717 -0.7408
vn 0.0000 -0.7408 0.6717
vn 0.0000 0.6717 0.7408
vn 0.0000 0.7408 -0.6717
vn 0.0000 0.3827 0.9239
vn 0.0000 -0.9239 0.3827
vn 0.0000 -0.3827 -0.9239
vn 0.0000 0.9239 -0.3827
vn 0.0000 0.9945 -0.1045
vn 0.0000 0.1045 0.9945
vn 0.0000 -0.9945 0.1045
vn 0.0000 -0.1045 -0.9945
vn 0.0000 -0.5606 0.8281
vn 0.0000 0.8281 0.5606
vn 0.0000 0.5606 -0.8281
vn 0.0000 -0.8281 -0.5606
s off
f 1/1/1 5/2/1 7/3/1 3/4/1
f 4/5/2 3/4/2 7/6/2 8/7/2
f 8/8/3 7/9/3 5/10/3 6/11/3
f 6/12/4 2/13/4 4/5/4 8/14/4
f 2/13/5 1/1/5 3/4/5 4/5/5
f 6/11/6 5/10/6 1/1/6 2/13/6
f 9/15/7 13/16/7 15/17/7 11/18/7
f 12/19/8 11/18/8 15/20/8 16/21/8
f 16/22/3 15/23/3 13/24/3 14/25/3
f 14/26/9 10/27/9 12/19/9 16/28/9
f 10/27/5 9/15/5 11/18/5 12/19/5
f 14/25/10 13/24/10 9/15/10 10/27/10
f 17/29/7 21/30/7 23/31/7 19/32/7
f 20/33/8 19/32/8 23/34/8 24/35/8
f 24/36/3 23/37/3 21/38/3 22/39/3
f 22/40/9 18/41/9 20/33/9 24/42/9
f 18/41/5 17/29/5 19/32/5 20/33/5
f 22/39/10 21/38/10 17/29/10 18/41/10
f 25/43/7 29/44/7 31/45/7 27/46/7
f 28/47/8 27/46/8 31/48/8 32/49/8
f 32/50/3 31/51/3 29/52/3 30/53/3
f 30/54/9 26/55/9 28/47/9 32/56/9
f 26/55/5 25/43/5 27/46/5 28/47/5
f 30/53/10 29/52/10 25/43/10 26/55/10
f 33/57/11 37/58/11 39/59/11 35/60/11
f 36/61/12 35/60/12 39/62/12 40/63/12
f 40/64/5 39/65/5 37/66/5 38/67/5
f 38/68/13 34/69/13 36/61/13 40/70/13
f 34/69/3 33/57/3 35/60/3 36/61/3
f 38/67/14 37/66/14 33/57/14 34/69/14
f 41/71/15 45/72/15 47/73/15 43/74/15
f 44/75/16 43/74/16 47/76/16 48/77/16
f 48/78/3 47/79/3 45/80/3 46/81/3
f 46/82/17 42/83/17 44/75/17 48/84/17
f 42/83/5 41/71/5 43/74/5 44/75/5
f 46/81/18 45/80/18 41/71/18 42/83/18
f 49/85/19 53/86/19 55/87/19 51/88/19
f 52/89/20 51/88/20 55/90/20 56/91/20
f 56/92/3 55/93/3 53/94/3 54/95/3
f 54/96/21 50/97/21 52/89/21 56/98/21
f 50/97/5 49/85/5 51/88/5 52/89/5
f 54/95/22 53/94/22 49/85/22 50/97/22
f 57/99/15 61/100/15 63/101/15 59/102/15
f 60/103/16 59/102/16 63/104/16 64/105/16
f 64/106/3 63/107/3 61/108/3 62/109/3
f 62/110/17 58/111/17 60/103/17 64/112/17
f 58/111/5 57/99/5 59/102/5 60/103/5
f 62/109/18 61/108/18 57/99/18 58/111/18
f 65/113/7 69/114/7 71/115/7 67/116/7
f 68/117/8 67/116/8 71/118/8 72/119/8
f 72/120/3 71/121/3 69/122/3 70/123/3
f 70/124/9 66/125/9 68/117/9 72/126/9
f 66/125/5 65/113/5 67/116/5 68/117/5
f 70/123/10 69/122/10 65/113/10 66/125/10
f 73/127/23 77/128/23 79/129/23 75/130/23
f 76/131/24 75/130/24 79/132/24 80/133/24
f 80/134/5 79/135/5 77/136/5 78/137/5
f 78/138/25 74/139/25 76/131/25 80/140/25
f 74/139/3 73/127/3 75/130/3 76/131/3
f 78/137/26 77/136/26 73/127/26 74/139/26
f 81/141/11 85/142/11 87/143/11 83/144/11
f 84/145/12 83/144/12 87/146/12 88/147/12
f 88/148/5 87/149/5 85/150/5 86/151/5
f 86/152/13 82/153/13 84/145/13 88/154/13
f 82/153/3 81/141/3 83/144/3 84/145/3
f 86/151/14 85/150/14 81/141/14 82/153/14
o uno.001_Cube.008
v 0.300000 6.458062 -26.200655
v 0.300000 3.542739 -21.894741
v 0.300000 6.077155 -26.458549
v 0.300000 3.161832 -22.152636
v -0.300000 6.458062 -26.200655
v -0.300000 3.542739 -21.894741
v -0.300000 6.077155 -26.458549
v -0.300000 3.161832 -22.152636
vt 0.625000 0.500000
vt 0.625000 0.750000
vt 0.875000 0.750000
vt 0.875000 0.500000
vt 0.375000 0.750000
vt 0.375000 1.000000
vt 0.625000 1.000000
vt 0.375000 0.000000
vt 0.375000 0.250000
vt 0.625000 0.250000
vt 0.625000 0.000000
vt 0.125000 0.500000
vt 0.125000 0.750000
vt 0.375000 0.500000
vn 0.0000 0.5606 -0.8281
vn 0.0000 -0.8281 -0.5606
vn -1.0000 0.0000 0.0000
vn 0.0000 -0.5606 0.8281
vn 1.0000 0.0000 0.0000
vn 0.0000 0.8281 0.5606
s off
f 89/155/27 91/156/27 95/157/27 93/158/27
f 92/159/28 96/160/28 95/161/28 91/156/28
f 96/162/29 94/163/29 93/164/29 95/165/29
f 94/166/30 96/167/30 92/159/30 90/168/30
f 90/168/31 92/159/31 91/156/31 89/155/31
f 94/163/32 90/168/32 89/155/32 93/164/32
